# xmcd
# Copyright (C) 1995-1998 Ti Kan
#
# Track frame offsets:
#       150
#       17392
#       36333
#       54190
#       72006
#       93425
#       109909
#       121950
#       136424
#       152604
#       170215
#       186344
#       203861
#       220204
#       242323
#
# Disc length: 3456 seconds
#
# Revision: 0
# Processed by: cddbd v1.5.2PL0 Copyright (c) Steve Scherf et al.
# Submitted via: CD-Transfer v1.0
#
DISCID=cb0d7e0f
DTITLE=X T C - A. Patridge
DYEAR=1900
DGENRE=
TTITLE0=Great Fire
TTITLE1=Wonderland
TTITLE2=Love On A Farmboy's Wages
TTITLE3=All You Pretty Girls
TTITLE4=This World Over
TTITLE5=Wake Up
TTITLE6=Grass
TTITLE7=Meeting Place, The
TTITLE8=Dear God
TTITLE9=Mayor Of Simpleton, The
TTITLE10=King For A Day
TTITLE11=Loving, The
TTITLE12=Dissapointed, The
TTITLE13=Ballad Of Peter Pumpkinhead, The
TTITLE14=Wrapped In Gray
EXTD=
EXTT0=
EXTT1=
EXTT2=
EXTT3=
EXTT4=
EXTT5=
EXTT6=
EXTT7=
EXTT8=
EXTT9=
EXTT10=
EXTT11=
EXTT12=
EXTT13=
EXTT14=
PLAYORDER=
